<svg xmlns="http://www.w3.org/2000/svg" xmlns:xlink="http://www.w3.org/1999/xlink" width="500" zoomAndPan="magnify" viewBox="0 0 375 374.999991" height="500" preserveAspectRatio="xMidYMid meet" version="1.0"><defs><filter x="0%" y="0%" width="100%" height="100%" id="id1"><feColorMatrix values="0 0 0 0 1 0 0 0 0 1 0 0 0 0 1 0 0 0 1 0" color-interpolation-filters="sRGB"/></filter><mask id="id2"><g filter="url(#id1)"><rect x="-37.5" width="450" fill="#000000" y="-37.499999" height="449.999989" fill-opacity="0.698"/></g></mask><clipPath id="id3"><path d="M 3 67 L 148 67 L 148 115.0625 L 3 115.0625 Z M 3 67 " clip-rule="nonzero"/></clipPath><clipPath id="id4"><path d="M 3 0.3125 L 148 0.3125 L 148 49 L 3 49 Z M 3 0.3125 " clip-rule="nonzero"/></clipPath><clipPath id="id5"><rect x="0" width="151" y="0" height="116"/></clipPath></defs><g mask="url(#id2)"><g transform="matrix(1, 0, 0, 1, 112, 130)"><g clip-path="url(#id5)"><path fill="#fcdaca" d="M 125.296875 70.925781 L 25.703125 70.925781 C 17.585938 70.925781 11.039062 64.328125 11.039062 56.214844 L 11.039062 52.621094 C 11.039062 44.480469 17.613281 37.910156 25.703125 37.910156 L 125.328125 37.910156 C 133.445312 37.910156 139.992188 44.507812 139.992188 52.621094 L 139.992188 56.214844 C 139.992188 64.328125 133.414062 70.925781 125.296875 70.925781 Z M 125.296875 70.925781 " fill-opacity="1" fill-rule="nonzero"/><g clip-path="url(#id3)"><path fill="#f995a9" d="M 146.042969 83.742188 C 131.871094 108.027344 105.570312 115.0625 75.484375 115.0625 C 71.585938 115.0625 67.746094 114.945312 64.023438 114.683594 C 38.824219 112.960938 17.292969 104.875 4.957031 83.742188 C 0.855469 76.707031 5.511719 67.917969 13.335938 67.128906 C 13.714844 67.101562 14.09375 67.074219 14.472656 67.074219 L 136.527344 67.074219 C 145.054688 67.101562 150.347656 76.382812 146.042969 83.742188 Z M 146.042969 83.742188 " fill-opacity="1" fill-rule="nonzero"/></g><g clip-path="url(#id4)"><path fill="#ffc2ce" d="M 136.527344 48.273438 L 14.472656 48.273438 C 5.945312 48.273438 0.652344 38.992188 4.957031 31.605469 C 19.128906 7.347656 45.429688 0.3125 75.484375 0.3125 C 81.277344 0.3125 86.949219 0.574219 92.390625 1.160156 C 115.230469 3.640625 134.578125 12.019531 146.042969 31.605469 C 150.347656 38.992188 145.054688 48.273438 136.527344 48.273438 Z M 136.527344 48.273438 " fill-opacity="1" fill-rule="nonzero"/></g><path fill="#ffa5b2" d="M 122.300781 83.800781 C 110.082031 104.699219 88.871094 112.84375 64.023438 114.683594 C 38.824219 112.960938 17.292969 104.875 4.957031 83.742188 C 0.855469 76.707031 5.511719 67.917969 13.335938 67.128906 L 112.785156 67.128906 C 121.3125 67.160156 126.636719 76.441406 122.300781 83.800781 Z M 122.300781 83.800781 " fill-opacity="1" fill-rule="nonzero"/><path fill="#ffa5b2" d="M 136.527344 48.273438 L 48.28125 48.273438 C 39.757812 48.273438 34.460938 38.992188 38.765625 31.605469 C 50.203125 12.019531 69.550781 3.667969 92.390625 1.160156 C 115.230469 3.640625 134.578125 12.019531 146.042969 31.605469 C 150.347656 38.992188 145.054688 48.273438 136.527344 48.273438 Z M 136.527344 48.273438 " fill-opacity="1" fill-rule="nonzero"/><path fill="#fc7282" d="M 117.324219 49.527344 C 114.851562 47.046875 109.761719 48.039062 105.425781 51.628906 C 104.753906 52.183594 103.824219 52.183594 103.15625 51.628906 C 98.820312 48.039062 93.726562 47.046875 91.253906 49.527344 C 88.519531 52.273438 90.035156 58.257812 94.628906 62.867188 C 97.714844 65.964844 101.378906 67.65625 104.289062 67.628906 C 107.199219 67.65625 110.894531 65.964844 113.949219 62.867188 C 118.546875 58.257812 120.058594 52.273438 117.324219 49.527344 Z M 117.324219 49.527344 " fill-opacity="1" fill-rule="nonzero"/><path fill="#fc7282" d="M 146.070312 49.527344 C 143.597656 47.046875 138.507812 48.039062 134.171875 51.628906 C 133.503906 52.183594 132.570312 52.183594 131.902344 51.628906 C 127.566406 48.039062 122.476562 47.046875 120 49.527344 C 117.265625 52.273438 118.78125 58.257812 123.375 62.867188 C 126.460938 65.964844 130.128906 67.65625 133.035156 67.628906 C 135.945312 67.65625 139.640625 65.964844 142.695312 62.867188 C 147.324219 58.257812 148.835938 52.273438 146.070312 49.527344 Z M 146.070312 49.527344 " fill-opacity="1" fill-rule="nonzero"/><path fill="#fc7282" d="M 88.519531 49.644531 C 86.046875 47.164062 80.957031 48.15625 76.621094 51.746094 C 75.949219 52.300781 75.019531 52.300781 74.351562 51.746094 C 70.015625 48.15625 64.921875 47.164062 62.449219 49.644531 C 59.714844 52.390625 61.230469 58.375 65.824219 62.984375 C 68.910156 66.078125 72.574219 67.773438 75.484375 67.742188 C 78.394531 67.773438 82.089844 66.078125 85.144531 62.984375 C 89.769531 58.34375 91.253906 52.390625 88.519531 49.644531 Z M 88.519531 49.644531 " fill-opacity="1" fill-rule="nonzero"/><path fill="#fc7282" d="M 59.746094 49.644531 C 57.273438 47.164062 52.179688 48.15625 47.84375 51.746094 C 47.175781 52.300781 46.246094 52.300781 45.574219 51.746094 C 41.238281 48.15625 36.148438 47.164062 33.675781 49.644531 C 30.941406 52.390625 32.453125 58.375 37.050781 62.984375 C 40.132812 66.078125 43.800781 67.773438 46.710938 67.742188 C 49.621094 67.773438 53.316406 66.078125 56.371094 62.984375 C 60.964844 58.34375 62.480469 52.390625 59.746094 49.644531 Z M 59.746094 49.644531 " fill-opacity="1" fill-rule="nonzero"/><path fill="#fc7282" d="M 30.851562 49.644531 C 28.378906 47.164062 23.289062 48.15625 18.953125 51.746094 C 18.285156 52.300781 17.351562 52.300781 16.683594 51.746094 C 12.347656 48.15625 7.257812 47.164062 4.78125 49.644531 C 2.046875 52.390625 3.5625 58.375 8.15625 62.984375 C 11.242188 66.078125 14.910156 67.773438 17.816406 67.742188 C 20.726562 67.773438 24.421875 66.078125 27.476562 62.984375 C 32.074219 58.34375 33.585938 52.390625 30.851562 49.644531 Z M 30.851562 49.644531 " fill-opacity="1" fill-rule="nonzero"/></g></g></g></svg>